<?xml version="1.0" encoding="iso-8859-1"?>
<!-- Generator: Adobe Illustrator 18.1.1, SVG Export Plug-In . SVG Version: 6.00 Build 0)  -->
<svg version="1.1" id="Layer_1" xmlns="http://www.w3.org/2000/svg" xmlns:xlink="http://www.w3.org/1999/xlink" x="0px" y="0px"
	 viewBox="0 0 905.899 470.579" style="enable-background:new 0 0 905.899 470.579;" xml:space="preserve">
<g>
	<g>
		<path style="fill:#757576;" d="M8.909,450.472H1.534v-1.062l3.727-4.134c0.667-0.745,1.118-1.336,1.355-1.773
			s0.355-0.886,0.355-1.344c0-0.567-0.165-1.046-0.496-1.434s-0.77-0.582-1.316-0.582c-0.786,0-1.366,0.202-1.738,0.605
			s-0.559,0.97-0.559,1.699H1.386l-0.016-0.047c-0.026-0.979,0.3-1.802,0.977-2.469s1.614-1,2.813-1
			c1.021,0,1.835,0.298,2.441,0.895s0.91,1.355,0.91,2.277c0,0.62-0.184,1.241-0.551,1.863s-0.882,1.29-1.543,2.004l-2.992,3.25
			l0.016,0.039h5.469V450.472z"/>
		<path style="fill:#757576;" d="M17.745,446.136c0,1.453-0.321,2.566-0.965,3.34s-1.524,1.16-2.645,1.16s-2.005-0.388-2.656-1.164
			s-0.977-1.888-0.977-3.336v-2.695c0-1.448,0.324-2.562,0.973-3.34s1.53-1.168,2.645-1.168c1.12,0,2.004,0.39,2.652,1.168
			s0.973,1.892,0.973,3.34V446.136z M16.206,443.11c0-0.984-0.179-1.725-0.535-2.222s-0.874-0.745-1.551-0.745
			s-1.192,0.248-1.547,0.745s-0.531,1.237-0.531,2.222v3.333c0,0.983,0.18,1.726,0.539,2.229c0.359,0.502,0.878,0.753,1.555,0.753
			s1.191-0.25,1.543-0.749c0.352-0.5,0.527-1.244,0.527-2.232V443.11z"/>
		<path style="fill:#757576;" d="M23.956,450.472h-1.539v-9.875l-2.328,0.031v-1.109l3.867-0.422V450.472z"/>
		<path style="fill:#757576;" d="M35.94,450.472h-7.375v-1.062l3.727-4.134c0.667-0.745,1.118-1.336,1.355-1.773
			s0.355-0.886,0.355-1.344c0-0.567-0.165-1.046-0.496-1.434s-0.77-0.582-1.316-0.582c-0.786,0-1.366,0.202-1.738,0.605
			s-0.559,0.97-0.559,1.699h-1.477l-0.016-0.047c-0.026-0.979,0.3-1.802,0.977-2.469s1.614-1,2.812-1
			c1.021,0,1.835,0.298,2.441,0.895s0.91,1.355,0.91,2.277c0,0.62-0.184,1.241-0.551,1.863s-0.882,1.29-1.543,2.004l-2.992,3.25
			l0.016,0.039h5.469V450.472z"/>
	</g>
</g>
<g>
	<g>
		<path style="fill:#757576;" d="M283.793,450.472h-7.375v-1.062l3.727-4.134c0.667-0.745,1.118-1.336,1.355-1.773
			c0.237-0.438,0.355-0.886,0.355-1.344c0-0.567-0.166-1.046-0.496-1.434c-0.331-0.388-0.77-0.582-1.316-0.582
			c-0.787,0-1.366,0.202-1.738,0.605c-0.373,0.403-0.559,0.97-0.559,1.699h-1.477l-0.016-0.047
			c-0.026-0.979,0.299-1.802,0.977-2.469c0.677-0.667,1.614-1,2.812-1c1.021,0,1.834,0.298,2.441,0.895
			c0.606,0.597,0.91,1.355,0.91,2.277c0,0.62-0.184,1.241-0.551,1.863s-0.882,1.29-1.543,2.004l-2.992,3.25l0.016,0.039h5.469
			V450.472z"/>
		<path style="fill:#757576;" d="M292.629,446.136c0,1.453-0.322,2.566-0.965,3.34c-0.644,0.773-1.525,1.16-2.645,1.16
			c-1.12,0-2.005-0.388-2.656-1.164c-0.651-0.776-0.977-1.888-0.977-3.336v-2.695c0-1.448,0.324-2.562,0.973-3.34
			s1.53-1.168,2.645-1.168c1.12,0,2.004,0.39,2.652,1.168s0.973,1.892,0.973,3.34V446.136z M291.09,443.11
			c0-0.984-0.179-1.725-0.535-2.222c-0.357-0.497-0.874-0.745-1.551-0.745c-0.677,0-1.193,0.248-1.547,0.745
			c-0.354,0.497-0.531,1.237-0.531,2.222v3.333c0,0.983,0.18,1.726,0.539,2.229c0.359,0.502,0.877,0.753,1.555,0.753
			c0.677,0,1.191-0.25,1.543-0.749c0.352-0.5,0.527-1.244,0.527-2.232V443.11z"/>
		<path style="fill:#757576;" d="M298.84,450.472h-1.539v-9.875l-2.328,0.031v-1.109l3.867-0.422V450.472z"/>
		<path style="fill:#757576;" d="M305.558,444.073h1.344c0.682,0,1.165-0.171,1.449-0.512c0.284-0.341,0.426-0.816,0.426-1.426
			c0-0.651-0.162-1.146-0.484-1.484c-0.323-0.339-0.8-0.508-1.43-0.508c-0.599,0-1.08,0.176-1.441,0.527
			c-0.362,0.352-0.543,0.819-0.543,1.402h-1.477l-0.016-0.047c-0.026-0.859,0.285-1.59,0.934-2.191s1.496-0.902,2.543-0.902
			c1.052,0,1.891,0.28,2.516,0.84s0.938,1.358,0.938,2.395c0,0.469-0.142,0.937-0.426,1.402c-0.284,0.466-0.71,0.821-1.277,1.066
			c0.682,0.224,1.165,0.575,1.449,1.055c0.284,0.479,0.426,1.016,0.426,1.609c0,1.036-0.34,1.852-1.02,2.445
			s-1.548,0.891-2.605,0.891c-1.037,0-1.895-0.28-2.574-0.84s-1.007-1.319-0.98-2.277l0.023-0.047h1.469
			c0,0.597,0.184,1.071,0.551,1.424c0.367,0.354,0.871,0.529,1.512,0.529c0.651,0,1.161-0.177,1.531-0.529
			c0.37-0.353,0.555-0.874,0.555-1.564c0-0.7-0.164-1.217-0.492-1.549s-0.847-0.498-1.555-0.498h-1.344V444.073z"/>
	</g>
</g>
<g>
	<g>
		<path style="fill:#757576;" d="M566.02,450.472h-7.375v-1.062l3.727-4.134c0.666-0.745,1.118-1.336,1.355-1.773
			c0.236-0.438,0.355-0.886,0.355-1.344c0-0.567-0.166-1.046-0.496-1.434c-0.331-0.388-0.77-0.582-1.316-0.582
			c-0.787,0-1.366,0.202-1.738,0.605c-0.373,0.403-0.559,0.97-0.559,1.699h-1.477l-0.016-0.047
			c-0.026-0.979,0.299-1.802,0.977-2.469c0.677-0.667,1.614-1,2.812-1c1.021,0,1.834,0.298,2.441,0.895
			c0.606,0.597,0.91,1.355,0.91,2.277c0,0.62-0.184,1.241-0.551,1.863s-0.882,1.29-1.543,2.004l-2.992,3.25l0.016,0.039h5.469
			V450.472z"/>
		<path style="fill:#757576;" d="M574.856,446.136c0,1.453-0.322,2.566-0.965,3.34c-0.644,0.773-1.525,1.16-2.645,1.16
			c-1.12,0-2.006-0.388-2.656-1.164c-0.651-0.776-0.977-1.888-0.977-3.336v-2.695c0-1.448,0.324-2.562,0.973-3.34
			s1.529-1.168,2.645-1.168c1.119,0,2.004,0.39,2.652,1.168s0.973,1.892,0.973,3.34V446.136z M573.317,443.11
			c0-0.984-0.179-1.725-0.535-2.222c-0.357-0.497-0.874-0.745-1.551-0.745c-0.678,0-1.193,0.248-1.547,0.745
			c-0.354,0.497-0.531,1.237-0.531,2.222v3.333c0,0.983,0.18,1.726,0.539,2.229c0.359,0.502,0.877,0.753,1.555,0.753
			c0.677,0,1.191-0.25,1.543-0.749c0.352-0.5,0.527-1.244,0.527-2.232V443.11z"/>
		<path style="fill:#757576;" d="M581.067,450.472h-1.539v-9.875l-2.328,0.031v-1.109l3.867-0.422V450.472z"/>
		<path style="fill:#757576;" d="M591.825,446.644h1.57v1.211h-1.57v2.617h-1.531v-2.617h-5.109v-0.868l5.016-7.89h1.625V446.644z
			 M586.825,446.644h3.469v-5.336l-0.047-0.008l-0.148,0.391L586.825,446.644z"/>
	</g>
</g>
<g>
	<g>
		<path style="fill:#757576;" d="M842.665,450.472h-7.375v-1.062l3.727-4.134c0.667-0.745,1.118-1.336,1.355-1.773
			s0.355-0.886,0.355-1.344c0-0.567-0.165-1.046-0.496-1.434s-0.77-0.582-1.316-0.582c-0.786,0-1.366,0.202-1.738,0.605
			s-0.559,0.97-0.559,1.699h-1.477l-0.016-0.047c-0.026-0.979,0.3-1.802,0.977-2.469s1.614-1,2.812-1
			c1.021,0,1.835,0.298,2.441,0.895s0.91,1.355,0.91,2.277c0,0.62-0.184,1.241-0.551,1.863s-0.882,1.29-1.543,2.004l-2.992,3.25
			l0.016,0.039h5.469V450.472z"/>
		<path style="fill:#757576;" d="M851.501,446.136c0,1.453-0.321,2.566-0.965,3.34s-1.524,1.16-2.645,1.16s-2.005-0.388-2.656-1.164
			s-0.977-1.888-0.977-3.336v-2.695c0-1.448,0.324-2.562,0.973-3.34s1.53-1.168,2.645-1.168c1.12,0,2.004,0.39,2.652,1.168
			s0.973,1.892,0.973,3.34V446.136z M849.962,443.11c0-0.984-0.179-1.725-0.535-2.222s-0.874-0.745-1.551-0.745
			s-1.192,0.248-1.547,0.745s-0.531,1.237-0.531,2.222v3.333c0,0.983,0.18,1.726,0.539,2.229c0.359,0.502,0.878,0.753,1.555,0.753
			s1.191-0.25,1.543-0.749c0.352-0.5,0.527-1.244,0.527-2.232V443.11z"/>
		<path style="fill:#757576;" d="M857.712,450.472h-1.539v-9.875l-2.328,0.031v-1.109l3.867-0.422V450.472z"/>
		<path style="fill:#757576;" d="M862.766,445.339l0.656-6.242h5.695v1.367h-4.391l-0.375,3.195
			c0.239-0.177,0.507-0.324,0.801-0.441s0.634-0.181,1.02-0.191c1.047-0.011,1.871,0.331,2.473,1.023s0.902,1.625,0.902,2.797
			c0,1.141-0.306,2.058-0.918,2.75s-1.504,1.039-2.676,1.039c-0.964,0-1.766-0.263-2.406-0.789s-0.948-1.3-0.922-2.32l0.016-0.047
			h1.391c0,0.617,0.179,1.096,0.535,1.436s0.819,0.51,1.387,0.51c0.651,0,1.156-0.229,1.516-0.687s0.539-1.084,0.539-1.88
			c0-0.729-0.183-1.326-0.547-1.794s-0.867-0.702-1.508-0.702c-0.604,0-1.042,0.091-1.312,0.273s-0.469,0.461-0.594,0.836
			L862.766,445.339z"/>
	</g>
</g>
<line style="fill:none;stroke:#757576;stroke-miterlimit:10;" x1="902.625" y1="423.771" x2="-1.375" y2="423.771"/>
<g>
	<g>
		<polygon style="fill:#FADD60;" points="903.899,423.771 0,423.771 0,231.556 23.177,264.613 46.354,259.715 69.531,254.818 
			92.708,246.248 115.885,247.472 139.061,231.556 162.238,246.248 185.415,232.781 208.592,240.127 231.769,238.902 
			254.946,229.108 278.123,145.856 301.3,192.379 324.477,174.014 347.654,171.566 370.83,174.014 394.007,170.342 417.184,148.304 
			440.361,166.669 463.538,166.669 486.715,177.687 509.892,181.36 533.069,191.155 556.246,93.211 579.423,147.08 602.599,120.145 
			625.776,159.323 648.953,133.613 672.13,131.164 695.307,115.248 718.484,131.164 741.661,132.388 764.838,133.613 
			788.015,126.267 811.192,142.183 834.369,11.183 857.545,89.538 880.722,43.015 903.899,31.996 		"/>
	</g>
	<g>
		<polygon style="fill:#F47C20;" points="903.899,423.771 0,423.771 0,301.341 23.177,324.603 46.354,324.603 69.531,325.827 
			92.708,325.827 115.885,329.5 139.061,323.379 162.238,330.725 185.415,322.155 208.592,327.052 231.769,327.052 254.946,325.827 
			278.123,289.099 301.3,311.136 324.477,305.014 347.654,311.136 370.83,319.706 394.007,319.706 417.184,312.36 440.361,320.93 
			463.538,317.257 486.715,319.706 509.892,320.93 533.069,325.827 556.246,287.874 579.423,312.36 602.599,306.239 
			625.776,334.398 648.953,333.173 672.13,335.622 695.307,333.173 718.484,336.846 741.661,335.622 764.838,336.846 
			788.015,334.398 811.192,345.416 834.369,312.36 857.545,334.398 880.722,328.276 903.899,333.173 		"/>
	</g>
</g>
</svg>
